<svg width="399" height="166" viewBox="0 0 399 166" fill="none" xmlns="http://www.w3.org/2000/svg">
<g clip-path="url(#clip0_118_196)">
<g filter="url(#filter0_di_118_196)">
<path d="M389 78.7012C389 118.853 355.117 151.402 313.319 151.402C290.486 151.402 270.015 141.688 256.139 126.328C242.262 141.722 221.767 151.461 198.904 151.461C176.366 151.461 156.13 141.996 142.266 126.979C128.403 141.962 108.189 151.402 85.6807 151.402C43.8834 151.402 10 118.853 10 78.7012C10.0001 38.5495 43.8834 6.00009 85.6807 6C108.219 6 128.456 15.4637 142.32 30.4805C156.183 15.498 176.396 6.05868 198.904 6.05859C221.738 6.05859 242.21 15.7723 256.086 31.1328C269.963 15.7387 290.457 6 313.319 6C355.117 6.00002 389 38.5494 389 78.7012Z" fill="white"/>
<mask id="mask0_118_196" style="mask-type:luminance" maskUnits="userSpaceOnUse" x="10" y="6" width="379" height="146">
<path d="M389 78.7012C389 118.853 355.117 151.402 313.319 151.402C290.486 151.402 270.015 141.688 256.139 126.328C242.262 141.722 221.767 151.461 198.904 151.461C176.366 151.461 156.13 141.996 142.266 126.979C128.403 141.962 108.189 151.402 85.6807 151.402C43.8834 151.402 10 118.853 10 78.7012C10.0001 38.5495 43.8834 6.00009 85.6807 6C108.219 6 128.456 15.4637 142.32 30.4805C156.183 15.498 176.396 6.05868 198.904 6.05859C221.738 6.05859 242.21 15.7723 256.086 31.1328C269.963 15.7387 290.457 6 313.319 6C355.117 6.00002 389 38.5494 389 78.7012Z" fill="white"/>
</mask>
<g mask="url(#mask0_118_196)">
<path d="M256.139 126.328L256.881 125.658L256.138 124.835L255.396 125.659L256.139 126.328ZM142.266 126.979L143 126.301L142.266 125.506L141.532 126.3L142.266 126.979ZM142.32 30.4805L141.586 31.1588L142.32 31.9538L143.054 31.1596L142.32 30.4805ZM256.086 31.1328L255.344 31.8032L256.087 32.6255L256.829 31.8024L256.086 31.1328ZM389 78.7012H388C388 118.263 354.603 150.402 313.319 150.402V151.402V152.402C355.631 152.402 390 119.443 390 78.7012H389ZM313.319 151.402V150.402C290.773 150.402 270.57 140.812 256.881 125.658L256.139 126.328L255.397 126.998C269.459 142.565 290.199 152.402 313.319 152.402V151.402ZM256.139 126.328L255.396 125.659C241.706 140.846 221.479 150.461 198.904 150.461V151.461V152.461C222.055 152.461 242.818 142.599 256.881 126.998L256.139 126.328ZM198.904 151.461V150.461C176.65 150.461 156.678 141.116 143 126.301L142.266 126.979L141.531 127.658C155.581 142.876 176.083 152.461 198.904 152.461V151.461ZM142.266 126.979L141.532 126.3C127.855 141.082 107.906 150.402 85.6807 150.402V151.402V152.402C108.473 152.402 128.951 142.843 143 127.659L142.266 126.979ZM85.6807 151.402V150.402C44.3974 150.402 11 118.263 11 78.7012H10H9C9 119.443 43.3693 152.402 85.6807 152.402V151.402ZM10 78.7012H11C11.0001 39.1392 44.3975 7.00009 85.6807 7V6V5C43.3694 5.00009 9.00006 37.9597 9 78.7012H10ZM85.6807 6V7C107.935 7 127.907 16.3437 141.586 31.1588L142.32 30.4805L143.055 29.8021C129.005 14.5837 108.502 5 85.6807 5V6ZM142.32 30.4805L143.054 31.1596C156.731 16.3783 176.679 7.05868 198.904 7.05859V6.05859V5.05859C176.113 5.05868 155.635 14.6177 141.586 29.8013L142.32 30.4805ZM198.904 6.05859V7.05859C221.45 7.05859 241.654 16.6491 255.344 31.8032L256.086 31.1328L256.828 30.4625C242.765 14.8955 222.025 5.05859 198.904 5.05859V6.05859ZM256.086 31.1328L256.829 31.8024C270.519 16.6152 290.745 7 313.319 7V6V5C290.169 5 269.407 14.8622 255.343 30.4633L256.086 31.1328ZM313.319 6V7C354.603 7.00002 388 39.1392 388 78.7012H389H390C390 37.9597 355.631 5.00002 313.319 5V6Z" fill="black"/>
</g>
</g>
<path d="M103.317 64.0008C99.9497 75.581 92.5282 86.26 75.4528 93.3343L74.2043 90.4955C83.0426 86.8908 89.1951 82.2722 93.4004 76.8426L78.5284 78.1944L78.8235 75.0402L95.3863 74.0039C96.7759 71.7735 97.8995 69.4078 98.7742 66.9296H83.2586L84.0984 64.0008H103.317ZM116.612 59.8103L105.126 99.8678H101.423L112.909 59.8103H116.612ZM141.879 62.4237C150.725 62.4687 155.912 66.6142 154.103 72.9225C152.391 78.8928 145.722 82.858 137.665 83.3311L135.249 91.7572H152.639L151.787 94.7311H113.63L114.483 91.7572H131.639L134.055 83.3311C126.299 82.8355 121.928 78.8703 123.634 72.9225C125.443 66.6142 133.006 62.4687 141.879 62.4237ZM141.039 65.3525C134.289 65.3525 128.488 68.4165 127.196 72.9225C125.866 77.5636 129.935 80.5375 136.672 80.5825C143.435 80.5375 149.209 77.5636 150.54 72.9225C151.832 68.4165 147.789 65.3525 141.039 65.3525ZM176.785 63.46C175.925 66.4565 176.998 70.3991 180.443 72.607C185.118 70.4442 188.396 66.6142 189.3 63.46L190.101 60.6664H193.758L192.957 63.46C191.858 67.2901 193.461 71.3454 198.186 73.0126L195.63 75.7161C192.029 74.2968 190.109 71.5932 189.707 68.4165C187.424 71.6383 183.916 74.6347 179.435 76.1217C175.75 74.5896 173.993 71.4806 173.587 68.2363C171.336 71.3454 167.857 74.1616 163.499 75.626L162.374 73.0126C168.047 71.2102 172.159 66.8395 173.128 63.46L173.93 60.6664H177.586L176.785 63.46ZM197.863 78.5549L197.023 81.4837H179.679L178.064 87.1161H190.486L186.829 99.8678H183.126L185.956 89.9999H160.596L161.423 87.1161H174.455L176.07 81.4837H158.913L159.753 78.5549H197.863ZM205.021 84.3224C202.793 81.3035 202.189 78.0141 203.15 74.4995C204.916 68.5067 211.301 63.7304 217.442 63.7304C220.113 63.7304 222.48 64.6316 223.958 66.3438C226.464 64.6316 229.348 63.7304 232.067 63.7304C238.207 63.7304 241.806 68.5067 240.135 74.4995C239.08 78.0141 236.59 81.3035 232.631 84.3224L215.004 97.5698L205.021 84.3224ZM230.703 81.8892C233.86 79.5462 235.802 77.0228 236.572 74.4995C237.688 70.4442 235.197 67.2 231.072 67.2C228.728 67.2 226.334 68.1913 222.472 71.5256C220.616 68.1913 218.744 67.2 216.447 67.2C212.275 67.2 207.97 70.4442 206.76 74.4995C206.083 77.0228 206.531 79.5462 208.297 81.8892L216.412 92.6584L230.703 81.8892ZM245.916 97.6599C241.275 97.6599 238.838 94.5508 240.019 90.2702C241.345 85.8094 245.5 82.9256 250.128 82.9707C251.751 82.9481 253.124 83.3086 254.156 83.962L260.414 61.9731H273.914L271.924 68.9122H262.034L255.969 90.2252L255.956 90.2702C254.729 94.5508 250.509 97.6599 245.916 97.6599ZM274.223 88.1975C272.676 88.1975 271.733 87.071 272.147 85.6291C272.56 84.1872 274.149 83.0608 275.696 83.0608C277.242 83.0608 278.232 84.1872 277.818 85.6291C277.405 87.071 275.769 88.1975 274.223 88.1975ZM281.078 96.984C279.531 96.984 278.589 95.8576 279.002 94.4157C279.416 92.9738 281.004 91.8473 282.551 91.8473C284.098 91.8473 285.087 92.9738 284.674 94.4157C284.26 95.8576 282.625 96.984 281.078 96.984ZM293.019 88.1975C291.473 88.1975 290.53 87.071 290.943 85.6291C291.357 84.1872 292.946 83.0608 294.492 83.0608C296.039 83.0608 297.029 84.1872 296.615 85.6291C296.202 87.071 294.566 88.1975 293.019 88.1975ZM286.091 79.5011C284.544 79.5011 283.602 78.3746 284.015 76.9327C284.429 75.4908 286.017 74.3644 287.564 74.3644C289.111 74.3644 290.101 75.4908 289.687 76.9327C289.274 78.3746 287.638 79.5011 286.091 79.5011ZM315.112 81.9343H311.925L314.209 74.9501L306.949 78.69L306.117 76.0315L313.516 72.7873L307.991 69.498L310.347 66.8395L315.462 70.5794L317.183 63.5952H320.371L318.087 70.5794L325.347 66.8395L326.178 69.498L318.813 72.7873L324.305 76.0315L321.949 78.69L316.834 74.9501L315.112 81.9343ZM308.639 104.509H305.452L307.736 97.5248L300.476 101.265L299.644 98.6062L307.043 95.3619L301.518 92.0726L303.874 89.4141L308.989 93.154L310.71 86.1698H313.898L311.614 93.154L318.874 89.4141L319.705 92.0726L312.34 95.3619L317.832 98.6062L315.476 101.265L310.361 97.5248L308.639 104.509Z" fill="black"/>
</g>
<defs>
<filter id="filter0_di_118_196" x="0" y="0" width="399" height="165.461" filterUnits="userSpaceOnUse" color-interpolation-filters="sRGB">
<feFlood flood-opacity="0" result="BackgroundImageFix"/>
<feColorMatrix in="SourceAlpha" type="matrix" values="0 0 0 0 0 0 0 0 0 0 0 0 0 0 0 0 0 0 127 0" result="hardAlpha"/>
<feOffset dy="4"/>
<feGaussianBlur stdDeviation="5"/>
<feComposite in2="hardAlpha" operator="out"/>
<feColorMatrix type="matrix" values="0 0 0 0 0 0 0 0 0 0 0 0 0 0 0 0 0 0 0.25 0"/>
<feBlend mode="normal" in2="BackgroundImageFix" result="effect1_dropShadow_118_196"/>
<feBlend mode="normal" in="SourceGraphic" in2="effect1_dropShadow_118_196" result="shape"/>
<feColorMatrix in="SourceAlpha" type="matrix" values="0 0 0 0 0 0 0 0 0 0 0 0 0 0 0 0 0 0 127 0" result="hardAlpha"/>
<feOffset dy="4"/>
<feGaussianBlur stdDeviation="7.5"/>
<feComposite in2="hardAlpha" operator="arithmetic" k2="-1" k3="1"/>
<feColorMatrix type="matrix" values="0 0 0 0 0 0 0 0 0 0 0 0 0 0 0 0 0 0 0.25 0"/>
<feBlend mode="normal" in2="shape" result="effect2_innerShadow_118_196"/>
</filter>
<clipPath id="clip0_118_196">
<rect width="399" height="166" fill="white"/>
</clipPath>
</defs>
</svg>
